<?xml version="1.0" standalone="no"?>
<!DOCTYPE svg PUBLIC "-//W3C//DTD SVG 20010904//EN"
 "http://www.w3.org/TR/2001/REC-SVG-20010904/DTD/svg10.dtd">
<svg version="1.0" xmlns="http://www.w3.org/2000/svg"
 width="2000.000000pt" height="2000.000000pt" viewBox="0 0 2000.000000 2000.000000"
 preserveAspectRatio="xMidYMid meet">
<metadata>
Created by potrace 1.14, written by Peter Selinger 2001-2017
</metadata>
<g transform="translate(0.000000,2000.000000) scale(0.100000,-0.100000)"
fill="#000000" stroke="none">
<path d="M0 10000 l0 -10000 10000 0 10000 0 0 10000 0 10000 -10000 0 -10000
0 0 -10000z m9983 2670 c7 0 22 6 32 14 17 12 21 12 31 -2 10 -15 455 -785
515 -892 14 -25 91 -157 171 -295 153 -264 240 -415 396 -685 152 -264 638
-1106 843 -1462 104 -180 192 -334 195 -342 6 -14 -203 -16 -2141 -16 l-2147
0 -20 25 c-11 14 -26 25 -34 25 -8 0 -14 4 -14 8 0 8 158 284 505 882 62 107
297 515 523 905 225 391 435 755 467 810 32 55 76 132 98 170 22 39 105 183
185 320 80 138 162 279 182 315 20 36 63 111 95 167 l59 102 22 -25 c13 -13
29 -24 37 -24z"/>
<path d="M9955 12327 c-10 -18 -41 -72 -70 -122 -29 -49 -114 -198 -190 -330
-76 -132 -159 -276 -185 -320 -26 -44 -134 -231 -240 -415 -190 -328 -419
-726 -615 -1065 -372 -644 -495 -859 -495 -866 0 -5 803 -9 1815 -9 1330 0
1815 3 1815 11 0 6 -22 48 -49 93 -26 44 -135 232 -241 416 -106 184 -223 387
-260 450 -37 63 -101 174 -142 245 -150 261 -752 1304 -844 1462 -52 89 -131
226 -176 305 -111 195 -101 183 -123 145z"/>
</g>
</svg>
